<?xml version="1.0" encoding="UTF-8"?>
<svg xmlns="http://www.w3.org/2000/svg" xmlns:xlink="http://www.w3.org/1999/xlink" width="306pt" height="232pt" viewBox="0 0 306 232" version="1.1">
<g id="surface1">
<path style=" stroke:none;fill-rule:nonzero;fill:rgb(90.196078%,90.196078%,90.196078%);fill-opacity:1;" d="M 296.523438 217.019531 L 297.738281 214.023438 C 299.214844 213.625 300.714844 213.308594 302.230469 213.078125 L 302.128906 214.535156 L 302.753906 213 C 304.628906 212.734375 305.886719 212.675781 305.886719 212.675781 C 305.886719 212.675781 303.359375 218.753906 299.214844 223.09375 L 295.066406 223.246094 L 298.152344 224.132812 C 297.640625 224.597656 297.101562 225.03125 296.539062 225.429688 C 290.832031 229.425781 284.902344 230.804688 283.292969 228.503906 C 281.683594 226.203125 285.003906 221.101562 290.710938 217.105469 C 292.554688 215.875 294.578125 214.9375 296.707031 214.320312 Z M 296.523438 217.019531 "/>
<path style=" stroke:none;fill-rule:nonzero;fill:rgb(90.196078%,90.196078%,90.196078%);fill-opacity:1;" d="M 285.757812 203.261719 L 284.214844 198.832031 C 285.441406 196.984375 286.773438 195.203125 288.203125 193.503906 L 289.488281 195.1875 L 288.699219 192.917969 C 290.484375 190.835938 291.800781 189.566406 291.800781 189.566406 C 291.800781 189.566406 294.859375 198.605469 294.5 207.292969 L 290.128906 211.429688 L 294.335938 209.445312 C 294.226562 210.441406 294.054688 211.429688 293.820312 212.40625 C 291.429688 222.21875 286.289062 229.394531 282.335938 228.429688 C 278.386719 227.46875 277.117188 218.730469 279.507812 208.917969 C 280.34375 205.8125 281.648438 202.855469 283.378906 200.144531 Z M 285.757812 203.261719 "/>
<path style=" stroke:none;fill-rule:nonzero;fill:rgb(90.196078%,90.196078%,90.196078%);fill-opacity:1;" d="M 301.976562 229.453125 C 301.976562 228.046875 279.898438 226.90625 252.660156 226.90625 C 225.425781 226.90625 203.34375 228.046875 203.34375 229.453125 C 203.34375 230.859375 225.425781 232 252.660156 232 C 279.898438 232 301.976562 230.859375 301.976562 229.453125 Z M 301.976562 229.453125 "/>
<path style=" stroke:none;fill-rule:nonzero;fill:rgb(90.196078%,90.196078%,90.196078%);fill-opacity:1;" d="M 86.8125 39.570312 L 51.972656 39.570312 L 51.972656 40.207031 L 86.8125 40.207031 C 90.382812 40.207031 93.28125 43.101562 93.28125 46.675781 C 93.28125 50.25 90.382812 53.144531 86.8125 53.144531 L 34.09375 53.144531 C 30.523438 53.144531 27.625 50.25 27.625 46.675781 C 27.625 43.101562 30.523438 40.207031 34.09375 40.207031 L 36.0625 40.207031 L 36.0625 39.570312 L 34.09375 39.570312 C 30.171875 39.570312 26.988281 42.75 26.988281 46.675781 C 26.988281 50.601562 30.171875 53.78125 34.09375 53.78125 L 86.8125 53.78125 C 90.734375 53.78125 93.914062 50.601562 93.914062 46.675781 C 93.914062 42.75 90.734375 39.570312 86.8125 39.570312 Z M 86.8125 39.570312 "/>
<path style=" stroke:none;fill-rule:nonzero;fill:rgb(42.352941%,38.823529%,100%);fill-opacity:1;" d="M 86.8125 61.53125 L 51.972656 61.53125 L 51.972656 62.167969 L 86.8125 62.167969 C 90.382812 62.167969 93.28125 65.066406 93.28125 68.636719 C 93.28125 72.210938 90.382812 75.109375 86.8125 75.109375 L 34.09375 75.109375 C 30.523438 75.109375 27.625 72.210938 27.625 68.636719 C 27.625 65.066406 30.523438 62.167969 34.09375 62.167969 L 36.0625 62.167969 L 36.0625 61.53125 L 34.09375 61.53125 C 30.171875 61.535156 26.996094 64.714844 26.996094 68.636719 C 26.996094 72.5625 30.171875 75.742188 34.09375 75.746094 L 86.8125 75.746094 C 90.734375 75.742188 93.910156 72.5625 93.910156 68.636719 C 93.910156 64.714844 90.734375 61.535156 86.8125 61.53125 Z M 86.8125 61.53125 "/>
<path style=" stroke:none;fill-rule:nonzero;fill:rgb(90.196078%,90.196078%,90.196078%);fill-opacity:1;" d="M 86.8125 83.496094 L 51.972656 83.496094 L 51.972656 84.132812 L 86.8125 84.132812 C 90.382812 84.132812 93.28125 87.027344 93.28125 90.601562 C 93.28125 94.175781 90.382812 97.070312 86.8125 97.070312 L 34.09375 97.070312 C 30.523438 97.070312 27.625 94.175781 27.625 90.601562 C 27.625 87.027344 30.523438 84.132812 34.09375 84.132812 L 36.0625 84.132812 L 36.0625 83.496094 L 34.09375 83.496094 C 30.171875 83.496094 26.988281 86.675781 26.988281 90.601562 C 26.988281 94.527344 30.171875 97.707031 34.09375 97.707031 L 86.8125 97.707031 C 90.734375 97.703125 93.910156 94.523438 93.910156 90.601562 C 93.910156 86.679688 90.734375 83.496094 86.8125 83.496094 Z M 86.8125 83.496094 "/>
<path style=" stroke:none;fill-rule:nonzero;fill:rgb(24.705882%,23.921569%,33.72549%);fill-opacity:1;" d="M 39.996094 37.886719 C 38.964844 37.90625 38.136719 38.746094 38.136719 39.78125 C 38.136719 40.8125 38.964844 41.65625 39.996094 41.671875 L 48.296875 41.671875 C 49.339844 41.6875 50.199219 40.855469 50.21875 39.8125 C 50.234375 38.765625 49.402344 37.90625 48.359375 37.886719 C 48.335938 37.886719 48.316406 37.886719 48.296875 37.886719 Z M 39.996094 37.886719 "/>
<path style=" stroke:none;fill-rule:nonzero;fill:rgb(24.705882%,23.921569%,33.72549%);fill-opacity:1;" d="M 39.996094 60.167969 C 38.964844 60.183594 38.136719 61.027344 38.136719 62.0625 C 38.136719 63.09375 38.964844 63.9375 39.996094 63.953125 L 48.296875 63.953125 C 49.339844 63.972656 50.203125 63.136719 50.21875 62.09375 C 50.234375 61.046875 49.402344 60.1875 48.359375 60.167969 C 48.335938 60.167969 48.316406 60.167969 48.296875 60.167969 Z M 39.996094 60.167969 "/>
<path style=" stroke:none;fill-rule:nonzero;fill:rgb(24.705882%,23.921569%,33.72549%);fill-opacity:1;" d="M 39.996094 81.8125 C 38.964844 81.828125 38.136719 82.671875 38.136719 83.707031 C 38.136719 84.738281 38.964844 85.582031 39.996094 85.597656 L 48.296875 85.597656 C 49.339844 85.613281 50.203125 84.78125 50.21875 83.738281 C 50.234375 82.691406 49.402344 81.828125 48.359375 81.8125 C 48.335938 81.8125 48.316406 81.8125 48.296875 81.8125 Z M 39.996094 81.8125 "/>
<path style=" stroke:none;fill-rule:nonzero;fill:rgb(90.196078%,90.196078%,90.196078%);fill-opacity:1;" d="M 36.703125 44.785156 C 35.671875 44.800781 34.84375 45.644531 34.84375 46.675781 C 34.84375 47.710938 35.671875 48.550781 36.703125 48.570312 L 84.140625 48.570312 C 85.183594 48.585938 86.046875 47.753906 86.0625 46.707031 C 86.078125 45.660156 85.246094 44.800781 84.203125 44.785156 C 84.179688 44.78125 84.160156 44.78125 84.140625 44.785156 Z M 36.703125 44.785156 "/>
<path style=" stroke:none;fill-rule:nonzero;fill:rgb(90.196078%,90.196078%,90.196078%);fill-opacity:1;" d="M 86.8125 18.878906 L 51.972656 18.878906 L 51.972656 19.515625 L 86.8125 19.515625 C 90.382812 19.515625 93.28125 22.414062 93.28125 25.988281 C 93.28125 29.558594 90.382812 32.457031 86.8125 32.457031 L 34.09375 32.457031 C 30.523438 32.453125 27.632812 29.558594 27.632812 25.988281 C 27.632812 22.414062 30.523438 19.519531 34.09375 19.515625 L 36.0625 19.515625 L 36.0625 18.878906 L 34.09375 18.878906 C 30.171875 18.882812 26.996094 22.0625 26.996094 25.988281 C 26.996094 29.910156 30.171875 33.089844 34.09375 33.09375 L 86.8125 33.09375 C 90.734375 33.089844 93.910156 29.910156 93.910156 25.988281 C 93.910156 22.0625 90.734375 18.882812 86.8125 18.878906 Z M 86.8125 18.878906 "/>
<path style=" stroke:none;fill-rule:nonzero;fill:rgb(24.705882%,23.921569%,33.72549%);fill-opacity:1;" d="M 39.996094 17.199219 C 38.964844 17.214844 38.136719 18.058594 38.136719 19.089844 C 38.136719 20.125 38.964844 20.964844 39.996094 20.984375 L 48.296875 20.984375 C 49.339844 21 50.203125 20.167969 50.21875 19.121094 C 50.234375 18.078125 49.402344 17.214844 48.359375 17.199219 C 48.335938 17.199219 48.316406 17.199219 48.296875 17.199219 Z M 39.996094 17.199219 "/>
<path style=" stroke:none;fill-rule:nonzero;fill:rgb(90.196078%,90.196078%,90.196078%);fill-opacity:1;" d="M 36.703125 24.09375 C 35.671875 24.109375 34.84375 24.953125 34.84375 25.988281 C 34.84375 27.019531 35.671875 27.863281 36.703125 27.878906 L 84.140625 27.878906 C 85.183594 27.898438 86.046875 27.0625 86.0625 26.019531 C 86.082031 24.972656 85.246094 24.109375 84.203125 24.09375 C 84.179688 24.09375 84.160156 24.09375 84.140625 24.09375 Z M 36.703125 24.09375 "/>
<path style=" stroke:none;fill-rule:nonzero;fill:rgb(42.352941%,38.823529%,100%);fill-opacity:1;" d="M 36.703125 66.746094 C 35.671875 66.761719 34.84375 67.605469 34.84375 68.636719 C 34.84375 69.671875 35.671875 70.515625 36.703125 70.53125 L 84.140625 70.53125 C 85.183594 70.546875 86.046875 69.714844 86.0625 68.667969 C 86.078125 67.625 85.246094 66.761719 84.203125 66.746094 C 84.179688 66.746094 84.160156 66.746094 84.140625 66.746094 Z M 36.703125 66.746094 "/>
<path style=" stroke:none;fill-rule:nonzero;fill:rgb(90.196078%,90.196078%,90.196078%);fill-opacity:1;" d="M 36.703125 88.707031 C 35.671875 88.726562 34.84375 89.566406 34.84375 90.601562 C 34.84375 91.632812 35.671875 92.476562 36.703125 92.492188 L 84.140625 92.492188 C 85.183594 92.511719 86.046875 91.675781 86.0625 90.632812 C 86.078125 89.585938 85.246094 88.726562 84.203125 88.707031 C 84.179688 88.707031 84.160156 88.707031 84.140625 88.707031 Z M 36.703125 88.707031 "/>
<path style=" stroke:none;fill-rule:nonzero;fill:rgb(42.352941%,38.823529%,100%);fill-opacity:1;" d="M 108.050781 68.785156 L 100.894531 64.652344 L 100.894531 72.921875 L 108.050781 68.785156 L 100.894531 64.652344 L 100.894531 72.921875 Z M 108.050781 68.785156 "/>
<path style=" stroke:none;fill-rule:nonzero;fill:rgb(90.196078%,90.196078%,90.196078%);fill-opacity:1;" d="M 114.257812 113.949219 L 2.386719 113.949219 C 1.597656 113.949219 0.957031 113.308594 0.953125 112.519531 L 0.953125 2.386719 C 0.957031 1.597656 1.597656 0.957031 2.386719 0.953125 L 118.519531 0.953125 C 119.308594 0.957031 119.949219 1.597656 119.949219 2.386719 L 119.949219 67.59375 L 120.90625 67.59375 L 120.90625 2.386719 C 120.902344 1.070312 119.835938 0 118.519531 0 L 2.386719 0 C 1.070312 0 0 1.070312 0 2.386719 L 0 112.519531 C 0 113.835938 1.070312 114.902344 2.386719 114.90625 L 114.257812 114.90625 Z M 114.257812 113.949219 "/>
<path style=" stroke:none;fill-rule:nonzero;fill:rgb(42.352941%,38.823529%,100%);fill-opacity:1;" d="M 216.894531 66 L 116.613281 66 C 115.3125 66 114.257812 66.824219 114.257812 67.839844 L 114.257812 89.554688 L 219.253906 89.554688 L 219.253906 67.839844 C 219.253906 66.824219 218.199219 66 216.894531 66 Z M 216.894531 66 "/>
<path style=" stroke:none;fill-rule:nonzero;fill:rgb(90.196078%,90.196078%,90.196078%);fill-opacity:1;" d="M 217.503906 65.363281 L 116.007812 65.363281 C 114.6875 65.363281 113.621094 66.433594 113.621094 67.75 L 113.621094 148.917969 C 113.621094 150.234375 114.6875 151.304688 116.007812 151.304688 L 217.503906 151.304688 C 218.820312 151.304688 219.890625 150.234375 219.890625 148.917969 L 219.890625 67.75 C 219.890625 66.433594 218.820312 65.363281 217.503906 65.363281 Z M 218.933594 148.917969 C 218.933594 149.707031 218.292969 150.347656 217.503906 150.351562 L 116.007812 150.351562 C 115.214844 150.347656 114.574219 149.707031 114.574219 148.917969 L 114.574219 67.75 C 114.574219 66.960938 115.214844 66.320312 116.007812 66.320312 L 217.503906 66.320312 C 218.292969 66.320312 218.933594 66.960938 218.933594 67.75 Z M 218.933594 148.917969 "/>
<path style=" stroke:none;fill-rule:nonzero;fill:rgb(90.196078%,90.196078%,90.196078%);fill-opacity:1;" d="M 193.113281 101.433594 L 158.273438 101.433594 L 158.273438 102.070312 L 193.113281 102.070312 C 196.6875 102.070312 199.582031 104.964844 199.582031 108.539062 C 199.582031 112.113281 196.6875 115.007812 193.113281 115.007812 L 140.394531 115.007812 C 136.824219 115.007812 133.929688 112.113281 133.929688 108.539062 C 133.929688 104.964844 136.824219 102.070312 140.394531 102.070312 L 142.367188 102.070312 L 142.367188 101.433594 L 140.394531 101.433594 C 136.472656 101.433594 133.292969 104.613281 133.292969 108.539062 C 133.292969 112.464844 136.472656 115.644531 140.394531 115.644531 L 193.113281 115.644531 C 197.039062 115.644531 200.21875 112.464844 200.21875 108.539062 C 200.21875 104.613281 197.039062 101.433594 193.113281 101.433594 Z M 193.113281 101.433594 "/>
<path style=" stroke:none;fill-rule:nonzero;fill:rgb(90.196078%,90.196078%,90.196078%);fill-opacity:1;" d="M 193.113281 123.394531 L 158.273438 123.394531 L 158.273438 124.03125 L 193.113281 124.03125 C 196.6875 124.03125 199.582031 126.929688 199.582031 130.5 C 199.582031 134.074219 196.6875 136.972656 193.113281 136.972656 L 140.394531 136.972656 C 136.824219 136.972656 133.929688 134.074219 133.929688 130.5 C 133.929688 126.929688 136.824219 124.03125 140.394531 124.03125 L 142.367188 124.03125 L 142.367188 123.394531 L 140.394531 123.394531 C 136.472656 123.394531 133.292969 126.578125 133.292969 130.5 C 133.292969 134.425781 136.472656 137.609375 140.394531 137.609375 L 193.113281 137.609375 C 197.039062 137.609375 200.21875 134.425781 200.21875 130.5 C 200.21875 126.578125 197.039062 123.394531 193.113281 123.394531 Z M 193.113281 123.394531 "/>
<path style=" stroke:none;fill-rule:nonzero;fill:rgb(24.705882%,23.921569%,33.72549%);fill-opacity:1;" d="M 146.296875 100.070312 C 145.265625 100.085938 144.4375 100.929688 144.4375 101.960938 C 144.4375 102.996094 145.265625 103.835938 146.296875 103.855469 L 154.597656 103.855469 C 155.644531 103.871094 156.503906 103.039062 156.519531 101.992188 C 156.539062 100.949219 155.707031 100.085938 154.660156 100.070312 C 154.640625 100.070312 154.617188 100.070312 154.597656 100.070312 Z M 146.296875 100.070312 "/>
<path style=" stroke:none;fill-rule:nonzero;fill:rgb(24.705882%,23.921569%,33.72549%);fill-opacity:1;" d="M 146.296875 121.714844 C 145.265625 121.730469 144.4375 122.574219 144.4375 123.605469 C 144.4375 124.640625 145.265625 125.480469 146.296875 125.5 L 154.597656 125.5 C 155.644531 125.515625 156.503906 124.683594 156.519531 123.636719 C 156.539062 122.589844 155.707031 121.730469 154.660156 121.714844 C 154.640625 121.710938 154.617188 121.710938 154.597656 121.714844 Z M 146.296875 121.714844 "/>
<path style=" stroke:none;fill-rule:nonzero;fill:rgb(90.196078%,90.196078%,90.196078%);fill-opacity:1;" d="M 143.007812 106.644531 C 141.972656 106.664062 141.144531 107.503906 141.144531 108.539062 C 141.144531 109.570312 141.972656 110.414062 143.007812 110.429688 L 190.441406 110.429688 C 191.484375 110.449219 192.347656 109.613281 192.363281 108.570312 C 192.382812 107.523438 191.546875 106.664062 190.503906 106.644531 C 190.484375 106.644531 190.460938 106.644531 190.441406 106.644531 Z M 143.007812 106.644531 "/>
<path style=" stroke:none;fill-rule:nonzero;fill:rgb(90.196078%,90.196078%,90.196078%);fill-opacity:1;" d="M 143.007812 128.609375 C 141.972656 128.625 141.144531 129.46875 141.144531 130.5 C 141.144531 131.535156 141.972656 132.378906 143.007812 132.394531 L 190.441406 132.394531 C 191.484375 132.410156 192.347656 131.578125 192.363281 130.53125 C 192.382812 129.488281 191.546875 128.625 190.503906 128.609375 C 190.484375 128.609375 190.460938 128.609375 190.441406 128.609375 Z M 143.007812 128.609375 "/>
<path style=" stroke:none;fill-rule:nonzero;fill:rgb(100%,100%,100%);fill-opacity:1;" d="M 135.074219 77.777344 C 135.074219 81.558594 132.011719 84.625 128.230469 84.625 C 124.449219 84.625 121.386719 81.558594 121.386719 77.777344 C 121.386719 73.996094 124.449219 70.929688 128.230469 70.929688 C 132.011719 70.929688 135.074219 73.996094 135.074219 77.777344 Z M 135.074219 77.777344 "/>
<path style=" stroke:none;fill-rule:nonzero;fill:rgb(100%,100%,100%);fill-opacity:1;" d="M 140.503906 72.371094 C 139.578125 72.386719 138.835938 73.144531 138.835938 74.070312 C 138.835938 74.996094 139.578125 75.75 140.503906 75.765625 L 183.023438 75.765625 C 183.960938 75.78125 184.730469 75.035156 184.746094 74.097656 C 184.761719 73.160156 184.015625 72.386719 183.078125 72.371094 C 183.058594 72.371094 183.042969 72.371094 183.023438 72.371094 Z M 140.503906 72.371094 "/>
<path style=" stroke:none;fill-rule:nonzero;fill:rgb(100%,100%,100%);fill-opacity:1;" d="M 140.503906 79.789062 C 139.578125 79.804688 138.835938 80.5625 138.835938 81.488281 C 138.835938 82.414062 139.578125 83.167969 140.503906 83.183594 L 210.402344 83.183594 C 211.335938 83.199219 212.109375 82.453125 212.125 81.515625 C 212.140625 80.578125 211.394531 79.804688 210.457031 79.789062 C 210.4375 79.789062 210.417969 79.789062 210.402344 79.789062 Z M 140.503906 79.789062 "/>
<path style=" stroke:none;fill-rule:nonzero;fill:rgb(62.745098%,38.039216%,41.568627%);fill-opacity:1;" d="M 275.140625 86.425781 L 261.140625 88.019531 C 261.332031 83.71875 260.96875 79.703125 259.550781 76.242188 L 271.003906 72.105469 C 269.976562 76.386719 271.90625 81.273438 275.140625 86.425781 Z M 275.140625 86.425781 "/>
<path style=" stroke:none;fill-rule:nonzero;fill:rgb(62.745098%,38.039216%,41.568627%);fill-opacity:1;" d="M 276.828125 134.199219 L 281.363281 142.296875 C 282.5 144.324219 281.777344 146.890625 279.75 148.023438 C 279.730469 148.035156 279.710938 148.046875 279.695312 148.054688 C 278.453125 148.726562 276.957031 148.730469 275.714844 148.066406 C 274.46875 147.402344 273.640625 146.160156 273.507812 144.753906 L 272.769531 137.015625 L 270.257812 107.472656 L 265.972656 88.042969 L 274.867188 85.515625 L 279.011719 107.367188 Z M 276.828125 134.199219 "/>
<path style=" stroke:none;fill-rule:nonzero;fill:rgb(18.431373%,18.039216%,25.490196%);fill-opacity:1;" d="M 284.367188 220.429688 L 278.640625 220.113281 L 265.914062 163.457031 L 238.867188 220.429688 L 233.140625 220.113281 L 249.6875 132.261719 L 250.003906 116.347656 L 270.6875 115.074219 C 278.414062 123.578125 282.792969 132.371094 283.414062 141.492188 Z M 284.367188 220.429688 "/>
<path style=" stroke:none;fill-rule:nonzero;fill:rgb(18.431373%,18.039216%,25.490196%);fill-opacity:1;" d="M 238.402344 230.378906 C 237.320312 230.875 236.277344 226.746094 235.496094 227.761719 C 232.878906 231.179688 226.777344 230.109375 226.804688 229.714844 C 225.964844 229.441406 225.5 228.542969 225.769531 227.703125 C 225.777344 227.675781 225.785156 227.652344 225.796875 227.628906 C 225.980469 227.136719 226.394531 226.765625 226.90625 226.640625 L 229.625 225.957031 L 233.894531 218.445312 L 238.257812 218.148438 C 240.226562 220.660156 240.9375 223.9375 240.183594 227.039062 C 239.789062 228.65625 239.175781 230.027344 238.402344 230.378906 Z M 238.402344 230.378906 "/>
<path style=" stroke:none;fill-rule:nonzero;fill:rgb(18.431373%,18.039216%,25.490196%);fill-opacity:1;" d="M 283.609375 230.378906 C 282.527344 230.875 281.484375 226.746094 280.703125 227.761719 C 277.683594 231.699219 271.804688 230.339844 272.011719 229.714844 C 271.167969 229.441406 270.707031 228.542969 270.976562 227.703125 C 270.984375 227.675781 270.992188 227.652344 271.003906 227.628906 C 271.1875 227.136719 271.601562 226.765625 272.109375 226.640625 L 274.832031 225.957031 L 279.101562 218.445312 L 283.757812 217.855469 L 283.875 218.046875 C 285.695312 220.984375 286.164062 224.558594 285.160156 227.863281 C 284.773438 229.105469 284.246094 230.089844 283.609375 230.378906 Z M 283.609375 230.378906 "/>
<path style=" stroke:none;fill-rule:nonzero;fill:rgb(62.745098%,38.039216%,41.568627%);fill-opacity:1;" d="M 272.277344 69.238281 C 272.277344 74.6875 267.859375 79.105469 262.414062 79.105469 C 256.964844 79.105469 252.550781 74.6875 252.550781 69.238281 C 252.550781 63.789062 256.964844 59.371094 262.414062 59.371094 C 267.859375 59.371094 272.277344 63.789062 272.277344 69.238281 Z M 272.277344 69.238281 "/>
<path style=" stroke:none;fill-rule:nonzero;fill:rgb(90.196078%,90.196078%,90.196078%);fill-opacity:1;" d="M 271.320312 116.664062 L 250.003906 117.9375 L 248.09375 105.84375 C 246.121094 100.40625 248.589844 95.410156 252.550781 90.566406 L 260.824219 81.335938 L 272.277344 81.015625 C 275.421875 82.050781 277.691406 84.808594 278.097656 88.097656 C 278.921875 94.863281 277.6875 101.722656 274.554688 107.777344 Z M 271.320312 116.664062 "/>
<path style=" stroke:none;fill-rule:nonzero;fill:rgb(62.745098%,38.039216%,41.568627%);fill-opacity:1;" d="M 248.09375 143.722656 L 249.621094 152.878906 C 250.003906 155.167969 248.453125 157.335938 246.164062 157.71875 C 246.144531 157.722656 246.121094 157.726562 246.101562 157.730469 C 244.707031 157.941406 243.300781 157.4375 242.351562 156.390625 C 241.40625 155.34375 241.046875 153.894531 241.398438 152.527344 L 243.324219 144.996094 L 250.957031 116.347656 L 253.503906 96.613281 L 262.730469 97.25 L 259.230469 119.210938 Z M 248.09375 143.722656 "/>
<path style=" stroke:none;fill-rule:nonzero;fill:rgb(18.431373%,18.039216%,25.490196%);fill-opacity:1;" d="M 274.242188 107.277344 L 274.011719 107.277344 C 269.710938 103.546875 265.972656 99.367188 268.992188 94.132812 C 266.429688 87.628906 263.574219 80.878906 263.75 76.699219 C 263.929688 73.613281 262.9375 70.570312 260.964844 68.183594 C 258.246094 65.003906 257.640625 63.582031 252.671875 64.785156 C 252.597656 59.582031 256.753906 55.308594 261.957031 55.234375 C 262.113281 55.234375 262.269531 55.234375 262.429688 55.242188 L 265.535156 55.355469 C 267.910156 55.441406 275.5 56.410156 277.128906 57.980469 C 278.804688 59.644531 279.605469 61.996094 279.292969 64.339844 C 278.988281 66.933594 279.808594 69.222656 281.992188 71.140625 C 286.171875 75.46875 287.898438 79.957031 285.527344 84.71875 C 283.738281 89.757812 283.824219 93.902344 288.441406 95.898438 C 289.9375 101.65625 280.1875 107.277344 274.242188 107.277344 Z M 274.242188 107.277344 "/>
<path style=" stroke:none;fill-rule:nonzero;fill:rgb(90.196078%,90.196078%,90.196078%);fill-opacity:1;" d="M 263.6875 100.433594 C 259.738281 97.410156 255.8125 97.171875 251.914062 100.113281 L 252.976562 88.027344 C 252.917969 84.476562 255.6875 81.519531 259.234375 81.351562 C 262.859375 81.175781 265.933594 83.976562 266.109375 87.601562 C 266.113281 87.742188 266.117188 87.882812 266.113281 88.023438 Z M 263.6875 100.433594 "/>
<path style=" stroke:none;fill-rule:nonzero;fill:rgb(62.745098%,38.039216%,41.568627%);fill-opacity:1;" d="M 263.84375 71.148438 C 263.84375 69.832031 263.273438 68.761719 262.570312 68.761719 C 261.871094 68.761719 261.300781 69.832031 261.300781 71.148438 C 261.300781 72.46875 261.871094 73.535156 262.570312 73.535156 C 263.273438 73.535156 263.84375 72.46875 263.84375 71.148438 Z M 263.84375 71.148438 "/>
</g>
</svg>
